<svg xmlns="http://www.w3.org/2000/svg" viewBox="-194 -213 1776 1776" role="img" aria-label="Printed Traces"><title>Printed Traces</title><g transform="translate(0, 1000) scale(1, -1)"><path fill="#f0ece4" d="M108.97663879394531 336.62469482421875 141.5673828125 336.5390625V149.86412048339844C70.20864868164062 112.19459533691406 22.679397583007812 54.32536315917969 0.0 13.500015258789062H23.0C54.8095703125 48.02577209472656 96.47087097167969 73.13180541992188 141.5673828125 86.08229064941406V-82.99998474121094V-111.49998474121094H281.9912109375H351.505859375V-82.99998474121094H351.50189208984375C351.50189208984375 -37.24690246582031 351.50157165527344 8.506195068359375 351.50157165527344 54.25927734375C362.7790069580078 46.87815856933594 373.4833526611328 38.602569580078125 383.5 29.500015258789062L645.9912109375 171.00001525878906V639.0000152587891C611.8743591308594 686.1984558105469 569.7708587646484 727.6215515136719 521.908203125 761.0000152587891L351.50022888183594 636.7996673583984C351.5002136230469 670.213134765625 351.49998474121094 703.6265869140625 351.49998474121094 737.0400543212891H322.83885192871094C322.83885192871094 696.663330078125 322.8385772705078 656.2866058349609 322.8385772705078 615.9098815917969L281.99119567871094 586.1386260986328V604.0000152587891C281.99119567871094 719.1353149414062 213.0761260986328 738.8338928222656 167.1204071044922 738.8338928222656C89.82510375976562 738.8338928222656 34.61845397949219 678.24755859375 32.12986755371094 613.3877105712891H56.06736755371094C60.309600830078125 636.8769989013672 76.74462890625 661.3961334228516 103.63215637207031 661.3961334228516C128.99998474121094 661.3961334228516 141.56736755371094 638.0000152587891 141.56736755371094 602.0000152587891V436.5483856201172C139.80117797851562 436.62994384765625 138.0330352783203 436.67063903808594 136.26483154296875 436.67063903808594C78.51957702636719 436.67063903808594 24.294677734375 392.47996520996094 24.294677734375 327.61424255371094C24.294677734375 315.33392333984375 26.405990600585938 303.0519714355469 30.576156616210938 291.50001525878906H53.57615661621094C53.541961669921875 292.2871398925781 53.5245361328125 293.0752258300781 53.5245361328125 293.8632507324219C53.5245361328125 322.00001525878906 70.00025939941406 336.7271270751953 108.97662353515625 336.6247100830078ZM518.3242034912109 572.0000152587891V500.54693603515625L351.50071716308594 416.28065490722656C351.50071716308594 479.3388977050781 351.5002899169922 542.3971405029297 351.5002899169922 605.4553833007812L424.40818786621094 656.9502105712891C458.86061096191406 632.0282287597656 490.3377685546875 603.5014038085938 518.3242034912109 572.0000152587891ZM351.50079345703125 384.1698760986328 518.3242034912109 468.4312744140625V395.5874328613281L351.50096130371094 311.32127380371094C351.50096130371094 335.60414123535156 351.50079345703125 359.8870086669922 351.50079345703125 384.1698760986328ZM351.50103759765625 279.21046447753906 518.3242034912109 363.47174072265625V135.50001525878906L496.32420349121094 122.50001525878906C453.6844482421875 153.67800903320312 403.5834045410156 174.4166259765625 351.5012664794922 183.1366729736328C351.5012664794922 215.16127014160156 351.50103759765625 247.1858673095703 351.50103759765625 279.21046447753906ZM322.83758544921875 186.69912719726562C313.7803039550781 187.4363250732422 304.6939239501953 187.8089599609375 295.6064147949219 187.8089599609375C291.0187225341797 187.8089599609375 286.48028564453125 187.7186737060547 281.9912109375 187.54173278808594V556.3611297607422L322.83851623535156 585.2115631103516C322.8385009765625 452.3740692138672 322.83758544921875 319.5365905761719 322.83758544921875 186.6990966796875ZM322.8373107910156 70.49237060546875C322.83729553222656 19.328231811523438 322.8369445800781 -31.835906982421875 322.8369445800781 -83.00003051757812H281.9911804199219V86.12603759765625C296.06968688964844 82.07861328125 309.73313903808594 76.83905029296875 322.83729553222656 70.49235534667969ZM783.5006829884347 527.2468251955531C783.5006998890855 565.5840246728386 818.2405789606112 584.8807482445668 856.6827652801505 584.8807482445668C908.6799664013867 584.8807482445668 1100.497045234775 522.5526525582615 1205.6430747177528 509.89033012743556V373.1637954166626L1132.850755232872 300.37147593178173L1205.6430747177528 227.57827761306356V38.976902492245515C1169.4814622059625 20.821581267339255 1128.2174756401137 10.049968433523304 1082.703414835863 10.049968433523304C1011.1892239621043 10.049968433523304 950.5070826491256 37.44016012385204 906.5807365758308 81.15967603367245L1101.7816805964235 163.3123533155494L1101.8552322283435 499.556883564108L858.0189645271364 395.6385680511637C892.96905389228 470.5757322178857 950.8252035975712 513.8357363353622 969.8181548733123 526.661741568382L959.1975155523512 542.5943230122926C795.0576183591165 515.5224043762661 698.3412109375 369.78263433357307 698.3412109375 233.95774933855097C698.3412109375 29.191172217353838 871.3656112061435 -111.49998474121094 1052.4947185261142 -111.49998474121094C1232.1666855425685 -111.49998474121094 1373.5216831606454 22.933756991344453 1373.5216831606454 192.05121693309303C1373.5216831606454 195.63538863259498 1373.4547396831554 199.21976313990552 1373.3202443047498 202.8020081652257H1352.0887004376405C1330.4528592040795 147.07824736219715 1290.7296204608438 93.5693675375809 1236.6559039886154 57.12985762605142V226.41659448538127L1310.6099066011784 300.37149283243247L1236.6559039886154 374.3254954449956V507.6649707455787C1236.9911283955867 507.6649707455787 1237.324561333582 507.6619624297511 1237.6561859019505 507.6619624297511C1317.6586947970104 507.6619624297511 1387.9613118221703 550.2115983962916 1387.9613118221703 630.0947210946869C1387.9613118221703 711.2682084753234 1307.0083610327397 768.1519454403118 1203.4257093436852 760.2714593220466V739.0355888883537C1237.406850601923 734.443293373584 1287.8860183751092 729.2742631530973 1287.8860183751092 690.35196314799C1287.8860183751092 665.9823064557519 1265.0000360080132 654.7113638965028 1241.2540640291838 654.7113638965028C1140.2294441306994 654.7113638965028 993.5655296061514 733.8654432249197 899.937699202412 733.8654432249197C792.1743504461492 733.8654432249197 724.4130504680002 664.5927180531512 724.4130504680002 585.0805139360415C724.4130504680002 527.2185335062529 758.5213184209309 486.5114064808775 799.9225382706019 468.26282746531496L810.5377693833336 484.1900007009961C795.6006869686053 491.25609516316223 783.5006998890855 506.103401321282 783.5006998890855 527.2468420962039ZM843.3863304344237 357.65854692613084 958.9011457413783 406.3972518871812 958.9033090246701 135.5509388322222 885.9419323306672 104.45625970993736C850.4577655022164 149.92622671646745 830.3315241919975 207.92283772986752 830.3315241919975 269.5426609459257C830.3315241919975 301.9922821368415 835.2935214412012 331.3519404565212 843.3863473350744 357.6585300254801Z"/></g></svg>