<svg xmlns="http://www.w3.org/2000/svg" viewBox="25 188 6294 942" fill="#f0ece4" role="img" aria-label="Printed Traces"><title>Printed Traces</title><g transform="translate(0, 1000) scale(1, -1)"><path d="M153.9766387939453 336.62469482421875 186.5673828125 336.5390625V149.86412048339844C115.20864868164062 112.19459533691406 67.67939758300781 54.32536315917969 45.0 13.500015258789062H68.0C99.8095703125 48.02577209472656 141.4708709716797 73.13180541992188 186.5673828125 86.08229064941406V-82.99998474121094V-111.49998474121094H326.9912109375H396.505859375V-82.99998474121094H396.50189208984375C396.50189208984375 -37.24690246582031 396.50157165527344 8.506195068359375 396.50157165527344 54.25927734375C407.7790069580078 46.87815856933594 418.4833526611328 38.602569580078125 428.5 29.500015258789062L690.9912109375 171.00001525878906V639.0000152587891C656.8743591308594 686.1984558105469 614.7708587646484 727.6215515136719 566.908203125 761.0000152587891L396.50022888183594 636.7996673583984C396.5002136230469 670.213134765625 396.49998474121094 703.6265869140625 396.49998474121094 737.0400543212891H367.83885192871094C367.83885192871094 696.663330078125 367.8385772705078 656.2866058349609 367.8385772705078 615.9098815917969L326.99119567871094 586.1386260986328V604.0000152587891C326.99119567871094 719.1353149414062 258.0761260986328 738.8338928222656 212.1204071044922 738.8338928222656C134.82510375976562 738.8338928222656 79.61845397949219 678.24755859375 77.12986755371094 613.3877105712891H101.06736755371094C105.30960083007812 636.8769989013672 121.74462890625 661.3961334228516 148.6321563720703 661.3961334228516C173.99998474121094 661.3961334228516 186.56736755371094 638.0000152587891 186.56736755371094 602.0000152587891V436.5483856201172C184.80117797851562 436.62994384765625 183.0330352783203 436.67063903808594 181.26483154296875 436.67063903808594C123.51957702636719 436.67063903808594 69.294677734375 392.47996520996094 69.294677734375 327.61424255371094C69.294677734375 315.33392333984375 71.40599060058594 303.0519714355469 75.57615661621094 291.50001525878906H98.57615661621094C98.54196166992188 292.2871398925781 98.5245361328125 293.0752258300781 98.5245361328125 293.8632507324219C98.5245361328125 322.00001525878906 115.00025939941406 336.7271270751953 153.97662353515625 336.6247100830078ZM563.3242034912109 572.0000152587891V500.54693603515625L396.50071716308594 416.28065490722656C396.50071716308594 479.3388977050781 396.5002899169922 542.3971405029297 396.5002899169922 605.4553833007812L469.40818786621094 656.9502105712891C503.86061096191406 632.0282287597656 535.3377685546875 603.5014038085938 563.3242034912109 572.0000152587891ZM396.50079345703125 384.1698760986328 563.3242034912109 468.4312744140625V395.5874328613281L396.50096130371094 311.32127380371094C396.50096130371094 335.60414123535156 396.50079345703125 359.8870086669922 396.50079345703125 384.1698760986328ZM396.50103759765625 279.21046447753906 563.3242034912109 363.47174072265625V135.50001525878906L541.3242034912109 122.50001525878906C498.6844482421875 153.67800903320312 448.5834045410156 174.4166259765625 396.5012664794922 183.1366729736328C396.5012664794922 215.16127014160156 396.50103759765625 247.1858673095703 396.50103759765625 279.21046447753906ZM367.83758544921875 186.69912719726562C358.7803039550781 187.4363250732422 349.6939239501953 187.8089599609375 340.6064147949219 187.8089599609375C336.0187225341797 187.8089599609375 331.48028564453125 187.7186737060547 326.9912109375 187.54173278808594V556.3611297607422L367.83851623535156 585.2115631103516C367.8385009765625 452.3740692138672 367.83758544921875 319.5365905761719 367.83758544921875 186.6990966796875ZM367.8373107910156 70.49237060546875C367.83729553222656 19.328231811523438 367.8369445800781 -31.835906982421875 367.8369445800781 -83.00003051757812H326.9911804199219V86.12603759765625C341.06968688964844 82.07861328125 354.73313903808594 76.83905029296875 367.83729553222656 70.49235534667969Z M1043.375 125.333984375 989.3916015625 88.5 949.9130859375 119.6328125V414.5266418457031C982.2247924804688 383.2899932861328 1017.3791961669922 373.30250549316406 1039.2567443847656 373.30250549316406C1069.0 373.30250549316406 1127.0 389.0 1138.7255859375 513.0H1108.8916015625C1100.304946899414 499.6045379638672 1084.3562622070312 488.30224609375 1063.6932067871094 488.30224609375C1045.1885070800781 488.30224609375 1028.1334228515625 498.06239318847656 1018.55859375 513.0H1008.2255859375L938.5154113769531 433.87855529785156L865.2177734375 512.69921875L731.0 421.6220703125L745.380859375 402.44921875L783.728515625 426.416015625L817.2822265625 383.275390625V119.6328125L754.9677734375 76.4921875L769.34765625 57.318359375L802.90234375 81.2861328125L912.771484375 -4.9970703125L1062.05859375 103.0Z M1426.537109375 114.83984375 1383.396484375 86.0791015625 1349.841796875 119.6328125V421.6220703125L1273.146484375 512.69921875L1138.9287109375 421.6220703125L1153.3095703125 402.44921875L1191.6572265625 426.416015625L1225.2109375 383.275390625V119.6328125L1162.896484375 76.4921875L1177.2763671875 57.318359375L1210.8310546875 81.2861328125L1306.7001953125 -4.9970703125L1450.50390625 95.666015625ZM1193.1884765625 647.6142578125 1278.4248046875 550.5419921875 1373.9345703125 634.4052734375 1288.7001953125 731.4794921875Z M1973.0771484375 114.83984375 1934.728515625 86.0791015625 1891.587890625 124.4267578125V385.7334442138672L1940.0107421875 425.0029296875L1922.3740234375 446.7509765625L1880.2407836914062 412.58148193359375L1766.95703125 509.9052734375L1657.0366668701172 423.97906494140625L1580.0107421875 509.9052734375L1441.0 414.0361328125L1455.380859375 394.861328125L1493.728515625 418.8291015625L1532.0771484375 375.6884765625V110.046875L1493.728515625 76.4921875L1608.7724609375 -14.583984375L1704.6416015625 71.69921875L1661.5 110.046875V384.59814453125L1704.6416015625 418.8291015625L1776.5439453125 356.5146484375V110.046875L1742.990234375 76.4921875L1843.654296875 -14.583984375L1992.25 86.0791015625Z M2214.9912109375 118.6328125V424.0H2286.9912109375L2333.88671875 479.0H2214.9912109375V594.0H2195.8173828125L2032.8388671875 430.609375L2032.8408203125 416.228515625C2053.0 416.228515625 2080.7744140625 407.39500427246094 2080.7744140625 368.5V128.220703125L2013.6650390625 85.0791015625L2028.0458984375 65.9052734375L2066.3935546875 89.8720703125L2171.8505859375 -1.203125L2309.4912109375 70.0L2295.111328125 89.173828125L2261.9912109375 71.25Z M2360.4375 64.5087890625 2404.6980590820312 100.40278625488281 2553.0673828125 -9.7900390625 2759.1865234375 157.9814453125 2744.806640625 181.94921875 2634.556640625 95.666015625 2514.71875 177.1552734375V220.29185485839844L2730.42578125 354.5146484375V359.3076171875L2629.7626953125 512.69921875L2390.0888671875 388.068359375V124.60586547851562L2342.80078125 86.255859375ZM2514.71875 254.72476196289062V425.2099609375L2533.8935546875 436.0029296875L2615.17578125 318.3720703125Z M2945.5888671875 465.69580078125 3051.5888671875 369.1669921875 3051.5908203125 68.6611328125 2945.5888671875 142.375ZM2938.397003173828 472.24505615234375 2816.587890625 397.333984375 2816.58984375 89.91796875 2960.8388671875 -9.0 3180.0888671875 120.5 3180.5620727539062 403.9274597167969 3223.3388671875 438.6181640625 3205.7021484375 460.3662109375 3168.7443084716797 430.3938903808594 2823.849609375 733.84375 2823.8388671875 554.5 2844.255859375 557.974609375Z M3657.8610076904297 580.3329467773438C3657.8610229492188 614.9457702636719 3689.2259979248047 632.3678588867188 3723.933609008789 632.3678588867188C3770.87939453125 632.3678588867188 3944.0618591308594 576.0948028564453 4038.993179321289 564.66259765625V441.21875L3973.272476196289 375.498046875L4038.993179321289 309.77655029296875V139.4973907470703C4006.3445892333984 123.10581970214844 3969.089309692383 113.38064575195312 3927.996841430664 113.38064575195312C3863.4300994873047 113.38064575195312 3808.643096923828 138.1099395751953 3768.984100341797 177.5821990966797L3945.221694946289 251.75392150878906L3945.288101196289 555.3330230712891L3725.1399993896484 461.51014709472656C3756.6947631835938 529.1673278808594 3808.9303131103516 568.2247161865234 3826.078140258789 579.8047027587891L3816.489273071289 594.1894683837891C3668.295211791992 569.7475280761719 3580.974594116211 438.1660614013672 3580.974594116211 315.53627014160156C3580.974594116211 130.66232299804688 3737.1900482177734 3.639007568359375 3900.722854614258 3.639007568359375C4062.9400787353516 3.639007568359375 4190.562744140625 125.01280212402344 4190.562744140625 277.70086669921875C4190.562744140625 280.9368438720703 4190.502304077148 284.1730041503906 4190.380874633789 287.40724182128906H4171.211929321289C4151.677963256836 237.096923828125 4115.813751220703 188.78631591796875 4066.993179321289 155.88682556152344V308.72772216796875L4133.762710571289 375.49806213378906L4066.993179321289 442.26759338378906V562.6534271240234C4067.2958374023438 562.6534271240234 4067.596878051758 562.6507110595703 4067.896286010742 562.6507110595703C4140.126724243164 562.6507110595703 4203.599594116211 601.0667419433594 4203.599594116211 673.1893920898438C4203.599594116211 746.47705078125 4130.511047363281 797.8346557617188 4036.991226196289 790.7197418212891V771.5468902587891C4067.671173095703 767.4007263183594 4113.246398925781 762.7338562011719 4113.246398925781 727.5927734375C4113.246398925781 705.590576171875 4092.583740234375 695.4145812988281 4071.1446380615234 695.4145812988281C3979.934341430664 695.4145812988281 3847.518508911133 766.8790130615234 3762.9864196777344 766.8790130615234C3665.6920471191406 766.8790130615234 3604.5136108398438 704.3359832763672 3604.5136108398438 632.5482177734375C3604.5136108398438 580.3074035644531 3635.308334350586 543.5548858642578 3672.687515258789 527.0791168212891L3682.271499633789 541.4589996337891C3668.7855224609375 547.8386383056641 3657.8610229492188 561.2435607910156 3657.8610229492188 580.3329620361328ZM3711.9288940429688 427.2198028564453 3816.221694946289 471.22364807128906 3816.223648071289 226.68946838378906 3750.350311279297 198.61557006835938C3718.3133544921875 239.66822814941406 3700.142333984375 292.0305938720703 3700.142333984375 347.6641845703125C3700.142333984375 376.9613952636719 3704.622283935547 403.4688262939453 3711.928909301758 427.21978759765625Z M4526.375 125.333984375 4472.3916015625 88.5 4432.9130859375 119.6328125V414.5266418457031C4465.224792480469 383.2899932861328 4500.379196166992 373.30250549316406 4522.256744384766 373.30250549316406C4552.0 373.30250549316406 4610.0 389.0 4621.7255859375 513.0H4591.8916015625C4583.304946899414 499.6045379638672 4567.356262207031 488.30224609375 4546.693206787109 488.30224609375C4528.188507080078 488.30224609375 4511.1334228515625 498.06239318847656 4501.55859375 513.0H4491.2255859375L4421.515411376953 433.87855529785156L4348.2177734375 512.69921875L4214.0 421.6220703125L4228.380859375 402.44921875L4266.728515625 426.416015625L4300.2822265625 383.275390625V119.6328125L4237.9677734375 76.4921875L4252.34765625 57.318359375L4285.90234375 81.2861328125L4395.771484375 -4.9970703125L4545.05859375 103.0Z M4766 432 4884.0263671875 359.3076171875C4884.0263671875 328.02674865722656 4884.025726318359 296.7458801269531 4884.025726318359 265.4649963378906C4817.168121337891 280.9446105957031 4711.44921875 307.5163116455078 4711.44921875 371.6767578125C4711.44921875 398.0 4736.5537109375 416.3427734375 4766.0 432.0ZM4783.3642578125 -5.0 4888.9017333984375 71.73417663574219 4965.2763671875 -4.775390625 5104.4677734375 90.8115234375 5099.7294921875 110.029296875 5056.59375 81.2900390625 5008.65625 129.220703125V381.3994598388672L5060.8349609375 423.71484375L5043.1982421875 445.462890625L5002.832550048828 412.7268524169922L4855.263671875 507.9052734375L4745.013671875 450.3828125C4715.448013305664 434.95713806152344 4682.5380859375 409.849609375 4682.5380859375 365.8515625C4682.5380859375 319.63682556152344 4718.123519897461 290.69232177734375 4764.142120361328 270.79888916015625C4689.826904296875 231.16384887695312 4648.657913208008 180.2921600341797 4648.657913208008 126.76472473144531C4648.657913208008 52.01890563964844 4719.996231079102 3.2547607421875 4783.3642578125 -5.0ZM4884.0255126953125 235.70152282714844C4884.0255126953125 185.25457763671875 4884.024475097656 134.80763244628906 4884.024475097656 84.36067199707031C4877.323638916016 82.24424743652344 4870.293518066406 81.1810302734375 4863.262680053711 81.1810302734375C4801.166732788086 81.1810302734375 4769.62109375 160.94239807128906 4769.62109375 217.68458557128906C4769.62109375 236.71359252929688 4775.7197265625 253.78411865234375 4782.321441650391 263.56982421875C4815.542694091797 251.3871612548828 4852.175186157227 242.99020385742188 4884.0255126953125 235.7015380859375Z M5282.326171875 174.0C5312.113571166992 119.2802734375 5366.427017211914 105.69572448730469 5395.326171875 105.0L5452.9931640625 146.6669921875L5465.9931640625 129.1669921875L5318.826171875 0.0H5304.826171875L5153.826171875 102.8779296875V401.8779296875L5360.326171875 517.0L5466.326171875 432.0L5371.326171875 360.0L5282.326171875 434.0Z M5491.4375 64.5087890625 5535.698059082031 100.40278625488281 5684.0673828125 -9.7900390625 5890.1865234375 157.9814453125 5875.806640625 181.94921875 5765.556640625 95.666015625 5645.71875 177.1552734375V220.29185485839844L5861.42578125 354.5146484375V359.3076171875L5760.7626953125 512.69921875L5521.0888671875 388.068359375V124.60586547851562L5473.80078125 86.255859375ZM5645.71875 254.72476196289062V425.2099609375L5664.8935546875 436.0029296875L5746.17578125 318.3720703125Z M5984.5888671875 -52.123046875 5994.3408203125 -25.876953125C5986.337890625 -21.345703125 5980.095703125 -12.9296875 5980.095703125 -1.046875C5980.095703125 23.3515625 6003.83984375 36.775390625 6027.24609375 36.775390625C6062.703125 36.775390625 6087.8212890625 13.9169921875 6101.2978515625 -10.0L6298.732421875 110.0L6298.7314453125 261.0L6212.600204467773 324.77642822265625C6268.949493408203 376.7549285888672 6291.993377685547 433.6462097167969 6299.797866821289 510.0H6271.547866821289C6271.547866821289 509.97019958496094 6271.538558959961 509.94041442871094 6271.538558959961 509.91062927246094L6271.172866821289 510.0C6268.614273071289 486.2998046875 6247.369155883789 468.3115234375 6221.127944946289 468.3115234375C6187.336929321289 468.3115234375 6162.616226196289 490.603515625 6148.130874633789 512.0L5941.464859008789 392.0V252.0L6017.218032836914 192.24066162109375C5938.704727172852 119.31222534179688 5922.320327758789 82.68165588378906 5922.320327758789 41.1845703125C5922.320327758789 -5.76171875 5950.088882446289 -38.7783203125 5984.588882446289 -52.123046875ZM6114.315612792969 240.06979370117188 6169.732437133789 195.9375 6169.734390258789 65.6669921875C6151.275405883789 106.2646484375 6110.190444946289 142.5380859375 6052.949234008789 142.5380859375C6026.244338989258 142.5380859375 6001.808700561523 133.62533569335938 5982.870346069336 118.61683654785156C6007.342849731445 149.1105194091797 6042.920562744141 178.74533081054688 6078.387710571289 209.2099609375ZM6111.8179931640625 274.82733154296875 6070.463882446289 317.0615234375 6070.461929321289 447.3330078125C6090.958023071289 396.435546875 6134.664077758789 373.75390625 6178.007827758789 373.75390625C6195.908660888672 373.75390625 6212.970275878906 377.3605651855469 6228.222106933594 384.016845703125C6214.801528930664 364.99427795410156 6199.8536376953125 350.4412841796875 6185.460952758789 338.080078125Z"/></g></svg>