<svg xmlns="http://www.w3.org/2000/svg" width="1000" height="700"><rect width="1000" height="700" x="0" y="0" fill="#FFFFFF" id="background"/><g transform="translate(120,70)" id="visualization"><g><rect x="755" y="0" height="118.65573770491804" width="5" fill="black"><title>Education &amp; Schools: 470</title></rect><rect x="0" y="-5.684341886080802e-14" height="107.2950819672131" width="5" fill="black"><title>New (reprints): 425</title></rect><rect x="755" y="133.65573770491804" height="93.40983606557378" width="5" fill="black"><title>Chinese Educational Mission: 370</title></rect><rect x="0" y="122.29508196721304" height="69.42622950819674" width="5" fill="black"><title>Education &amp; Schools: 275</title></rect><rect x="0" y="206.72131147540978" height="56.29836065573767" width="5" fill="black"><title>Chinese Educational Mission: 223</title></rect><rect x="755" y="242.06557377049182" height="42.66557377049179" width="5" fill="black"><title>Children &amp; Family: 169</title></rect><rect x="755" y="299.7311475409836" height="40.64590163934429" width="5" fill="black"><title>Law, Politics &amp; Exclusion: 161</title></rect><rect x="0" y="278.01967213114744" height="37.11147540983609" width="5" fill="black"><title>Daily Life &amp; Urban Space: 147</title></rect><rect x="0" y="330.13114754098353" height="36.35409836065577" width="5" fill="black"><title>Children &amp; Family: 144</title></rect><rect x="0" y="381.4852459016393" height="26.760655737704894" width="5" fill="black"><title>Law, Politics &amp; Exclusion: 106</title></rect><rect x="755" y="355.3770491803279" height="19.186885245901635" width="5" fill="black"><title>Diplomacy: 76</title></rect><rect x="755" y="389.56393442622954" height="18.177049180327856" width="5" fill="black"><title>Commerce &amp; Material Culture: 72</title></rect><rect x="0" y="423.2459016393442" height="17.924590163934454" width="5" fill="black"><title>Commerce &amp; Material Culture: 71</title></rect><rect x="755" y="422.7409836065574" height="16.662295081967216" width="5" fill="black"><title>Land, Migration &amp; Labor: 66</title></rect><rect x="755" y="454.4032786885246" height="15.652459016393436" width="5" fill="black"><title>Culture, Perception &amp; Acculturation: 62</title></rect><rect x="0" y="456.17049180327865" height="15.399999999999977" width="5" fill="black"><title>Violence &amp; War: 61</title></rect><rect x="0" y="486.5704918032786" height="10.855737704918056" width="5" fill="black"><title>Land, Migration &amp; Labor: 43</title></rect><rect x="755" y="485.05573770491804" height="10.350819672131138" width="5" fill="black"><title>Daily Life &amp; Urban Space: 41</title></rect><rect x="755" y="510.4065573770492" height="9.593442622950818" width="5" fill="black"><title>Violence &amp; War: 38</title></rect><rect x="0" y="512.4262295081967" height="7.573770491803316" width="5" fill="black"><title>Culture, Perception &amp; Acculturation: 30</title></rect></g><g fill="none" stroke-opacity="0.4"><g style="mix-blend-mode: multiply;"><path d="M5,148.6770491803278C377,148.6770491803278,377,65.00819672131148,755,65.00819672131148" stroke="#8c564b" stroke-width="52.76393442622951"/><title>Education &amp; Schools → Education &amp; Schools: 209</title></g><g style="mix-blend-mode: multiply;"><path d="M5,233.355737704918C377,233.355737704918,377,193.61475409836066,755,193.61475409836066" stroke="#fe640b" stroke-width="47.71475409836066"/><title>Chinese Educational Mission → Chinese Educational Mission: 189</title></g><g style="mix-blend-mode: multiply;"><path d="M5,19.313114754098304C377,19.313114754098304,377,19.31311475409836,755,19.31311475409836" stroke="#eab308" stroke-width="38.62622950819672"/><title>New (reprints) → Education &amp; Schools: 153</title></g><g style="mix-blend-mode: multiply;"><path d="M5,54.531147540983554C377,54.531147540983554,377,149.56065573770493,755,149.56065573770493" stroke="#eab308" stroke-width="31.809836065573773"/><title>New (reprints) → Chinese Educational Mission: 126</title></g><g style="mix-blend-mode: multiply;"><path d="M5,397.51639344262287C377,397.51639344262287,377,327.8803278688524,755,327.8803278688524" stroke="#8839ef" stroke-width="18.429508196721315"/><title>Law, Politics &amp; Exclusion → Law, Politics &amp; Exclusion: 73</title></g><g style="mix-blend-mode: multiply;"><path d="M5,349.4442622950819C377,349.4442622950819,377,267.69016393442627,755,267.69016393442627" stroke="#40a02b" stroke-width="15.904918032786886"/><title>Children &amp; Family → Children &amp; Family: 63</title></g><g style="mix-blend-mode: multiply;"><path d="M5,84.4475409836065C377,84.4475409836065,377,360.80491803278693,755,360.80491803278693" stroke="#eab308" stroke-width="10.855737704918035"/><title>New (reprints) → Diplomacy: 43</title></g><g style="mix-blend-mode: multiply;"><path d="M5,435.2377049180327C377,435.2377049180327,377,400.7983606557377,755,400.7983606557377" stroke="#179299" stroke-width="9.340983606557378"/><title>Commerce &amp; Material Culture → Commerce &amp; Material Culture: 37</title></g><g style="mix-blend-mode: multiply;"><path d="M5,98.96393442622946C377,98.96393442622946,377,458.9475409836066,755,458.9475409836066" stroke="#eab308" stroke-width="9.088524590163935"/><title>New (reprints) → Culture, Perception &amp; Acculturation: 36</title></g><g style="mix-blend-mode: multiply;"><path d="M5,334.42295081967205C377,334.42295081967205,377,102.75081967213113,755,102.75081967213113" stroke="#40a02b" stroke-width="8.58360655737705"/><title>Children &amp; Family → Education &amp; Schools: 34</title></g><g style="mix-blend-mode: multiply;"><path d="M5,289.5065573770491C377,289.5065573770491,377,255.57213114754103,755,255.57213114754103" stroke="#1e66f5" stroke-width="8.331147540983608"/><title>Daily Life &amp; Urban Space → Children &amp; Family: 33</title></g><g style="mix-blend-mode: multiply;"><path d="M5,297.08032786885235C377,297.08032786885235,377,312.48032786885244,755,312.48032786885244" stroke="#1e66f5" stroke-width="6.816393442622951"/><title>Daily Life &amp; Urban Space → Law, Politics &amp; Exclusion: 27</title></g><g style="mix-blend-mode: multiply;"><path d="M5,468.7934426229508C377,468.7934426229508,377,516.7180327868853,755,516.7180327868853" stroke="#d20f39" stroke-width="5.554098360655738"/><title>Violence &amp; War → Violence &amp; War: 22</title></g><g style="mix-blend-mode: multiply;"><path d="M5,72.96065573770485C377,72.96065573770485,377,244.59016393442624,755,244.59016393442624" stroke="#eab308" stroke-width="5.049180327868853"/><title>New (reprints) → Children &amp; Family: 20</title></g><g style="mix-blend-mode: multiply;"><path d="M5,494.7754098360654C377,494.7754098360654,377,436.7524590163934,755,436.7524590163934" stroke="#df8e1d" stroke-width="4.796721311475411"/><title>Land, Migration &amp; Labor → Land, Migration &amp; Labor: 19</title></g><g style="mix-blend-mode: multiply;"><path d="M5,311.5967213114752C377,311.5967213114752,377,490.35737704918034,755,490.35737704918034" stroke="#1e66f5" stroke-width="4.5442622950819676"/><title>Daily Life &amp; Urban Space → Daily Life &amp; Urban Space: 18</title></g><g style="mix-blend-mode: multiply;"><path d="M5,177.20491803278682C377,177.20491803278682,377,167.61147540983606,755,167.61147540983606" stroke="#8c564b" stroke-width="4.291803278688525"/><title>Education &amp; Schools → Chinese Educational Mission: 17</title></g><g style="mix-blend-mode: multiply;"><path d="M5,280.16557377049173C377,280.16557377049173,377,96.31311475409835,755,96.31311475409835" stroke="#1e66f5" stroke-width="4.291803278688525"/><title>Daily Life &amp; Urban Space → Education &amp; Schools: 17</title></g><g style="mix-blend-mode: multiply;"><path d="M5,184.65245901639338C377,184.65245901639338,377,305.28524590163937,755,305.28524590163937" stroke="#8c564b" stroke-width="4.039344262295082"/><title>Education &amp; Schools → Law, Politics &amp; Exclusion: 16</title></g><g style="mix-blend-mode: multiply;"><path d="M5,383.50491803278686C377,383.50491803278686,377,109.0622950819672,755,109.0622950819672" stroke="#8839ef" stroke-width="4.039344262295082"/><title>Law, Politics &amp; Exclusion → Education &amp; Schools: 16</title></g><g style="mix-blend-mode: multiply;"><path d="M5,428.04262295081963C377,428.04262295081963,377,279.4295081967214,755,279.4295081967214" stroke="#179299" stroke-width="4.039344262295082"/><title>Commerce &amp; Material Culture → Children &amp; Family: 16</title></g><g style="mix-blend-mode: multiply;"><path d="M5,306.0426229508195C377,306.0426229508195,377,429.8098360655738,755,429.8098360655738" stroke="#1e66f5" stroke-width="3.534426229508197"/><title>Daily Life &amp; Urban Space → Land, Migration &amp; Labor: 14</title></g><g style="mix-blend-mode: multiply;"><path d="M5,77.25245901639339C377,77.25245901639339,377,301.4983606557377,755,301.4983606557377" stroke="#eab308" stroke-width="3.534426229508197"/><title>New (reprints) → Law, Politics &amp; Exclusion: 14</title></g><g style="mix-blend-mode: multiply;"><path d="M5,180.99180327868845C377,180.99180327868845,377,248.75573770491803,755,248.75573770491803" stroke="#8c564b" stroke-width="3.2819672131147546"/><title>Education &amp; Schools → Children &amp; Family: 13</title></g><g style="mix-blend-mode: multiply;"><path d="M5,283.8262295081966C377,283.8262295081966,377,218.98688524590165,755,218.98688524590165" stroke="#1e66f5" stroke-width="3.029508196721312"/><title>Daily Life &amp; Urban Space → Chinese Educational Mission: 12</title></g><g style="mix-blend-mode: multiply;"><path d="M5,358.78524590163926C377,358.78524590163926,377,317.2770491803278,755,317.2770491803278" stroke="#40a02b" stroke-width="2.777049180327869"/><title>Children &amp; Family → Law, Politics &amp; Exclusion: 11</title></g><g style="mix-blend-mode: multiply;"><path d="M5,340.1032786885245C377,340.1032786885245,377,221.89016393442623,755,221.89016393442623" stroke="#40a02b" stroke-width="2.777049180327869"/><title>Children &amp; Family → Chinese Educational Mission: 11</title></g><g style="mix-blend-mode: multiply;"><path d="M5,104.89672131147537C377,104.89672131147537,377,486.44426229508196,755,486.44426229508196" stroke="#eab308" stroke-width="2.777049180327869"/><title>New (reprints) → Daily Life &amp; Urban Space: 11</title></g><g style="mix-blend-mode: multiply;"><path d="M5,208.10983606557372C377,208.10983606557372,377,92.77868852459017,755,92.77868852459017" stroke="#fe640b" stroke-width="2.777049180327869"/><title>Chinese Educational Mission → Education &amp; Schools: 11</title></g><g style="mix-blend-mode: multiply;"><path d="M5,487.83278688524587C377,487.83278688524587,377,115.37377049180327,755,115.37377049180327" stroke="#df8e1d" stroke-width="2.5245901639344264"/><title>Land, Migration &amp; Labor → Education &amp; Schools: 10</title></g><g style="mix-blend-mode: multiply;"><path d="M5,461.7245901639344C377,461.7245901639344,377,372.7967213114755,755,372.7967213114755" stroke="#d20f39" stroke-width="2.5245901639344264"/><title>Violence &amp; War → Diplomacy: 10</title></g><g style="mix-blend-mode: multiply;"><path d="M5,189.19672131147536C377,189.19672131147536,377,426.0229508196722,755,426.0229508196722" stroke="#8c564b" stroke-width="2.5245901639344264"/><title>Education &amp; Schools → Land, Migration &amp; Labor: 10</title></g><g style="mix-blend-mode: multiply;"><path d="M5,91.13770491803274C377,91.13770491803274,377,390.8262295081968,755,390.8262295081968" stroke="#eab308" stroke-width="2.5245901639344264"/><title>New (reprints) → Commerce &amp; Material Culture: 10</title></g><g style="mix-blend-mode: multiply;"><path d="M5,303.13934426229497C377,303.13934426229497,377,394.4868852459017,755,394.4868852459017" stroke="#1e66f5" stroke-width="2.2721311475409838"/><title>Daily Life &amp; Urban Space → Commerce &amp; Material Culture: 9</title></g><g style="mix-blend-mode: multiply;"><path d="M5,513.4360655737704C377,513.4360655737704,377,117.64590163934425,755,117.64590163934425" stroke="#ea76cb" stroke-width="2.019672131147541"/><title>Culture, Perception &amp; Acculturation → Education &amp; Schools: 8</title></g><g style="mix-blend-mode: multiply;"><path d="M5,93.40983606557371C377,93.40983606557371,377,423.7508196721312,755,423.7508196721312" stroke="#eab308" stroke-width="2.019672131147541"/><title>New (reprints) → Land, Migration &amp; Labor: 8</title></g><g style="mix-blend-mode: multiply;"><path d="M5,361.183606557377C377,361.183606557377,377,370.0196721311476,755,370.0196721311476" stroke="#40a02b" stroke-width="2.019672131147541"/><title>Children &amp; Family → Diplomacy: 8</title></g><g style="mix-blend-mode: multiply;"><path d="M5,457.18032786885243C377,457.18032786885243,377,113.10163934426228,755,113.10163934426228" stroke="#d20f39" stroke-width="2.019672131147541"/><title>Violence &amp; War → Education &amp; Schools: 8</title></g><g style="mix-blend-mode: multiply;"><path d="M5,425.139344262295C377,425.139344262295,377,225.172131147541,755,225.172131147541" stroke="#179299" stroke-width="1.7672131147540986"/><title>Commerce &amp; Material Culture → Chinese Educational Mission: 7</title></g><g style="mix-blend-mode: multiply;"><path d="M5,515.3295081967212C377,515.3295081967212,377,283.84754098360656,755,283.84754098360656" stroke="#ea76cb" stroke-width="1.7672131147540986"/><title>Culture, Perception &amp; Acculturation → Children &amp; Family: 7</title></g><g style="mix-blend-mode: multiply;"><path d="M5,387.4180327868852C377,387.4180327868852,377,276.52622950819676,755,276.52622950819676" stroke="#8839ef" stroke-width="1.7672131147540986"/><title>Law, Politics &amp; Exclusion → Children &amp; Family: 7</title></g><g style="mix-blend-mode: multiply;"><path d="M5,259.10655737704917C377,259.10655737704917,377,308.1885245901639,755,308.1885245901639" stroke="#fe640b" stroke-width="1.7672131147540986"/><title>Chinese Educational Mission → Law, Politics &amp; Exclusion: 7</title></g><g style="mix-blend-mode: multiply;"><path d="M5,301.24590163934414C377,301.24590163934414,377,368.2524590163935,755,368.2524590163935" stroke="#1e66f5" stroke-width="1.514754098360656"/><title>Daily Life &amp; Urban Space → Diplomacy: 6</title></g><g style="mix-blend-mode: multiply;"><path d="M5,308.56721311475394C377,308.56721311475394,377,465.7639344262295,755,465.7639344262295" stroke="#1e66f5" stroke-width="1.514754098360656"/><title>Daily Life &amp; Urban Space → Culture, Perception &amp; Acculturation: 6</title></g><g style="mix-blend-mode: multiply;"><path d="M5,465.1327868852458C377,465.1327868852458,377,468.66721311475413,755,468.66721311475413" stroke="#d20f39" stroke-width="1.2622950819672132"/><title>Violence &amp; War → Culture, Perception &amp; Acculturation: 5</title></g><g style="mix-blend-mode: multiply;"><path d="M5,364.339344262295C377,364.339344262295,377,467.15245901639344,755,467.15245901639344" stroke="#40a02b" stroke-width="1.2622950819672132"/><title>Children &amp; Family → Culture, Perception &amp; Acculturation: 5</title></g><g style="mix-blend-mode: multiply;"><path d="M5,314.49999999999983C377,314.49999999999983,377,512.5524590163934,755,512.5524590163934" stroke="#1e66f5" stroke-width="1.2622950819672132"/><title>Daily Life &amp; Urban Space → Violence &amp; War: 5</title></g><g style="mix-blend-mode: multiply;"><path d="M5,459.8311475409835C377,459.8311475409835,377,338.23114754098356,755,338.23114754098356" stroke="#d20f39" stroke-width="1.2622950819672132"/><title>Violence &amp; War → Law, Politics &amp; Exclusion: 5</title></g><g style="mix-blend-mode: multiply;"><path d="M5,519.2426229508199C377,519.2426229508199,377,494.9016393442623,755,494.9016393442623" stroke="#ea76cb" stroke-width="1.0098360655737706"/><title>Culture, Perception &amp; Acculturation → Daily Life &amp; Urban Space: 4</title></g><g style="mix-blend-mode: multiply;"><path d="M5,423.75081967213106C377,423.75081967213106,377,111.58688524590164,755,111.58688524590164" stroke="#179299" stroke-width="1.0098360655737706"/><title>Commerce &amp; Material Culture → Education &amp; Schools: 4</title></g><g style="mix-blend-mode: multiply;"><path d="M5,190.96393442622946C377,190.96393442622946,377,463.9967213114754,755,463.9967213114754" stroke="#8c564b" stroke-width="1.0098360655737706"/><title>Education &amp; Schools → Culture, Perception &amp; Acculturation: 4</title></g><g style="mix-blend-mode: multiply;"><path d="M5,386.0295081967212C377,386.0295081967212,377,223.78360655737706,755,223.78360655737706" stroke="#8839ef" stroke-width="1.0098360655737706"/><title>Law, Politics &amp; Exclusion → Chinese Educational Mission: 4</title></g><g style="mix-blend-mode: multiply;"><path d="M5,187.17704918032783C377,187.17704918032783,377,366.7377049180328,755,366.7377049180328" stroke="#8c564b" stroke-width="1.0098360655737706"/><title>Education &amp; Schools → Diplomacy: 4</title></g><g style="mix-blend-mode: multiply;"><path d="M5,463.49180327868845C377,463.49180327868845,377,405.97377049180324,755,405.97377049180324" stroke="#d20f39" stroke-width="1.0098360655737706"/><title>Violence &amp; War → Commerce &amp; Material Culture: 4</title></g><g style="mix-blend-mode: multiply;"><path d="M5,490.10491803278677C377,490.10491803278677,377,282.4590163934426,755,282.4590163934426" stroke="#df8e1d" stroke-width="1.0098360655737706"/><title>Land, Migration &amp; Labor → Children &amp; Family: 4</title></g><g style="mix-blend-mode: multiply;"><path d="M5,260.74754098360654C377,260.74754098360654,377,392.8459016393443,755,392.8459016393443" stroke="#fe640b" stroke-width="1.0098360655737706"/><title>Chinese Educational Mission → Commerce &amp; Material Culture: 4</title></g><g style="mix-blend-mode: multiply;"><path d="M5,106.79016393442619C377,106.79016393442619,377,510.91147540983604,755,510.91147540983604" stroke="#eab308" stroke-width="1.0098360655737706"/><title>New (reprints) → Violence &amp; War: 4</title></g><g style="mix-blend-mode: multiply;"><path d="M5,363.2032786885245C377,363.2032786885245,377,432.08196721311475,755,432.08196721311475" stroke="#40a02b" stroke-width="1.0098360655737706"/><title>Children &amp; Family → Land, Migration &amp; Labor: 4</title></g><g style="mix-blend-mode: multiply;"><path d="M5,257.7180327868852C377,257.7180327868852,377,250.90163934426232,755,250.90163934426232" stroke="#fe640b" stroke-width="1.0098360655737706"/><title>Chinese Educational Mission → Children &amp; Family: 4</title></g><g style="mix-blend-mode: multiply;"><path d="M5,518.3590163934427C377,518.3590163934427,377,469.67704918032797,755,469.67704918032797" stroke="#ea76cb" stroke-width="1"/><title>Culture, Perception &amp; Acculturation → Culture, Perception &amp; Acculturation: 3</title></g><g style="mix-blend-mode: multiply;"><path d="M5,440.7918032786884C377,440.7918032786884,377,493.76557377049187,755,493.76557377049187" stroke="#179299" stroke-width="1"/><title>Commerce &amp; Material Culture → Daily Life &amp; Urban Space: 3</title></g><g style="mix-blend-mode: multiply;"><path d="M5,407.6147540983606C377,407.6147540983606,377,432.96557377049186,755,432.96557377049186" stroke="#8839ef" stroke-width="1"/><title>Law, Politics &amp; Exclusion → Land, Migration &amp; Labor: 3</title></g><g style="mix-blend-mode: multiply;"><path d="M5,517.3491803278689C377,517.3491803278689,377,407.3622950819672,755,407.3622950819672" stroke="#ea76cb" stroke-width="1"/><title>Culture, Perception &amp; Acculturation → Commerce &amp; Material Culture: 3</title></g><g style="mix-blend-mode: multiply;"><path d="M5,366.10655737704917C377,366.10655737704917,377,513.5622950819672,755,513.5622950819672" stroke="#40a02b" stroke-width="1"/><title>Children &amp; Family → Violence &amp; War: 3</title></g><g style="mix-blend-mode: multiply;"><path d="M5,490.9885245901639C377,490.9885245901639,377,339.2409836065574,755,339.2409836065574" stroke="#df8e1d" stroke-width="1"/><title>Land, Migration &amp; Labor → Law, Politics &amp; Exclusion: 3</title></g><g style="mix-blend-mode: multiply;"><path d="M5,516.5918032786885C377,516.5918032786885,377,339.9983606557377,755,339.9983606557377" stroke="#ea76cb" stroke-width="1"/><title>Culture, Perception &amp; Acculturation → Law, Politics &amp; Exclusion: 3</title></g><g style="mix-blend-mode: multiply;"><path d="M5,261.63114754098365C377,261.63114754098365,377,427.66393442622956,755,427.66393442622956" stroke="#fe640b" stroke-width="1"/><title>Chinese Educational Mission → Land, Migration &amp; Labor: 3</title></g><g style="mix-blend-mode: multiply;"><path d="M5,365.34918032786885C377,365.34918032786885,377,493.00819672131155,755,493.00819672131155" stroke="#40a02b" stroke-width="1"/><title>Children &amp; Family → Daily Life &amp; Urban Space: 3</title></g><g style="mix-blend-mode: multiply;"><path d="M5,262.26229508196724C377,262.26229508196724,377,464.7540983606558,755,464.7540983606558" stroke="#fe640b" stroke-width="1"/><title>Chinese Educational Mission → Culture, Perception &amp; Acculturation: 2</title></g><g style="mix-blend-mode: multiply;"><path d="M5,492.12459016393433C377,492.12459016393433,377,406.7311475409836,755,406.7311475409836" stroke="#df8e1d" stroke-width="1"/><title>Land, Migration &amp; Labor → Commerce &amp; Material Culture: 2</title></g><g style="mix-blend-mode: multiply;"><path d="M5,406.983606557377C377,406.983606557377,377,371.28196721311485,755,371.28196721311485" stroke="#8839ef" stroke-width="1"/><title>Law, Politics &amp; Exclusion → Diplomacy: 2</title></g><g style="mix-blend-mode: multiply;"><path d="M5,262.7672131147541C377,262.7672131147541,377,511.6688524590164,755,511.6688524590164" stroke="#fe640b" stroke-width="1"/><title>Chinese Educational Mission → Violence &amp; War: 2</title></g><g style="mix-blend-mode: multiply;"><path d="M5,458.44262295081967C377,458.44262295081967,377,226.30819672131148,755,226.30819672131148" stroke="#d20f39" stroke-width="1"/><title>Violence &amp; War → Chinese Educational Mission: 2</title></g><g style="mix-blend-mode: multiply;"><path d="M5,440.1606557377048C377,440.1606557377048,377,433.59672131147545,755,433.59672131147545" stroke="#179299" stroke-width="1"/><title>Commerce &amp; Material Culture → Land, Migration &amp; Labor: 2</title></g><g style="mix-blend-mode: multiply;"><path d="M5,458.94754098360653C377,458.94754098360653,377,281.70163934426233,755,281.70163934426233" stroke="#d20f39" stroke-width="1"/><title>Violence &amp; War → Children &amp; Family: 2</title></g><g style="mix-blend-mode: multiply;"><path d="M5,430.3147540983606C377,430.3147540983606,377,337.34754098360656,755,337.34754098360656" stroke="#179299" stroke-width="1"/><title>Commerce &amp; Material Culture → Law, Politics &amp; Exclusion: 2</title></g><g style="mix-blend-mode: multiply;"><path d="M5,464.2491803278688C377,464.2491803278688,377,434.1016393442623,755,434.1016393442623" stroke="#d20f39" stroke-width="1"/><title>Violence &amp; War → Land, Migration &amp; Labor: 2</title></g><g style="mix-blend-mode: multiply;"><path d="M5,362.44590163934424C377,362.44590163934424,377,395.8754098360656,755,395.8754098360656" stroke="#40a02b" stroke-width="1"/><title>Children &amp; Family → Commerce &amp; Material Culture: 2</title></g><g style="mix-blend-mode: multiply;"><path d="M5,489.3475409836065C377,489.3475409836065,377,226.81311475409836,755,226.81311475409836" stroke="#df8e1d" stroke-width="1"/><title>Land, Migration &amp; Labor → Chinese Educational Mission: 2</title></g><g style="mix-blend-mode: multiply;"><path d="M5,491.61967213114747C377,491.61967213114747,377,374.31147540983613,755,374.31147540983613" stroke="#df8e1d" stroke-width="1"/><title>Land, Migration &amp; Labor → Diplomacy: 2</title></g><g style="mix-blend-mode: multiply;"><path d="M5,260.11639344262295C377,260.11639344262295,377,367.36885245901647,755,367.36885245901647" stroke="#fe640b" stroke-width="1"/><title>Chinese Educational Mission → Diplomacy: 1</title></g><g style="mix-blend-mode: multiply;"><path d="M5,497.2999999999999C377,497.2999999999999,377,519.6213114754099,755,519.6213114754099" stroke="#df8e1d" stroke-width="1"/><title>Land, Migration &amp; Labor → Violence &amp; War: 1</title></g><g style="mix-blend-mode: multiply;"><path d="M5,187.80819672131145C377,187.80819672131145,377,392.2147540983607,755,392.2147540983607" stroke="#8c564b" stroke-width="1"/><title>Education &amp; Schools → Commerce &amp; Material Culture: 1</title></g><g style="mix-blend-mode: multiply;"><path d="M5,191.59508196721308C377,191.59508196721308,377,487.95901639344265,755,487.95901639344265" stroke="#8c564b" stroke-width="1"/><title>Education &amp; Schools → Daily Life &amp; Urban Space: 1</title></g><g style="mix-blend-mode: multiply;"><path d="M5,408.11967213114747C377,408.11967213114747,377,467.9098360655738,755,467.9098360655738" stroke="#8839ef" stroke-width="1"/><title>Law, Politics &amp; Exclusion → Culture, Perception &amp; Acculturation: 1</title></g><g style="mix-blend-mode: multiply;"><path d="M5,517.8540983606558C377,517.8540983606558,377,439.2770491803279,755,439.2770491803279" stroke="#ea76cb" stroke-width="1"/><title>Culture, Perception &amp; Acculturation → Land, Migration &amp; Labor: 1</title></g><g style="mix-blend-mode: multiply;"><path d="M5,519.8737704918034C377,519.8737704918034,377,519.8737704918034,755,519.8737704918034" stroke="#ea76cb" stroke-width="1"/><title>Culture, Perception &amp; Acculturation → Violence &amp; War: 1</title></g><g style="mix-blend-mode: multiply;"><path d="M5,465.8901639344262C377,465.8901639344262,377,494.27049180327873,755,494.27049180327873" stroke="#d20f39" stroke-width="1"/><title>Violence &amp; War → Daily Life &amp; Urban Space: 1</title></g></g><g><text x="751" y="59.32786885245902" text-anchor="end" transform="translate(0,-5)"><tspan alignment-baseline="middle" x="751" style="font-family: Arial, sans-serif; font-size: 12px; fill: black; font-weight: bold;">Education &amp; Schools</tspan><tspan alignment-baseline="middle" x="751" dy="12" style="font-family: Arial, sans-serif; font-size: 12px; fill: black; font-weight: normal;">470</tspan></text><text x="9" y="53.64754098360649" text-anchor="start" transform="translate(0,-5)"><tspan alignment-baseline="middle" x="9" style="font-family: Arial, sans-serif; font-size: 12px; fill: black; font-weight: bold;">New (reprints)</tspan><tspan alignment-baseline="middle" x="9" dy="12" style="font-family: Arial, sans-serif; font-size: 12px; fill: black; font-weight: normal;">425</tspan></text><text x="751" y="180.36065573770492" text-anchor="end" transform="translate(0,-5)"><tspan alignment-baseline="middle" x="751" style="font-family: Arial, sans-serif; font-size: 12px; fill: black; font-weight: bold;">Chinese Educational Mission</tspan><tspan alignment-baseline="middle" x="751" dy="12" style="font-family: Arial, sans-serif; font-size: 12px; fill: black; font-weight: normal;">370</tspan></text><text x="9" y="157.0081967213114" text-anchor="start" transform="translate(0,-5)"><tspan alignment-baseline="middle" x="9" style="font-family: Arial, sans-serif; font-size: 12px; fill: black; font-weight: bold;">Education &amp; Schools</tspan><tspan alignment-baseline="middle" x="9" dy="12" style="font-family: Arial, sans-serif; font-size: 12px; fill: black; font-weight: normal;">275</tspan></text><text x="9" y="234.8704918032786" text-anchor="start" transform="translate(0,-5)"><tspan alignment-baseline="middle" x="9" style="font-family: Arial, sans-serif; font-size: 12px; fill: black; font-weight: bold;">Chinese Educational Mission</tspan><tspan alignment-baseline="middle" x="9" dy="12" style="font-family: Arial, sans-serif; font-size: 12px; fill: black; font-weight: normal;">223</tspan></text><text x="751" y="263.39836065573775" text-anchor="end" transform="translate(0,-5)"><tspan alignment-baseline="middle" x="751" style="font-family: Arial, sans-serif; font-size: 12px; fill: black; font-weight: bold;">Children &amp; Family</tspan><tspan alignment-baseline="middle" x="751" dy="12" style="font-family: Arial, sans-serif; font-size: 12px; fill: black; font-weight: normal;">169</tspan></text><text x="751" y="320.05409836065576" text-anchor="end" transform="translate(0,-5)"><tspan alignment-baseline="middle" x="751" style="font-family: Arial, sans-serif; font-size: 12px; fill: black; font-weight: bold;">Law, Politics &amp; Exclusion</tspan><tspan alignment-baseline="middle" x="751" dy="12" style="font-family: Arial, sans-serif; font-size: 12px; fill: black; font-weight: normal;">161</tspan></text><text x="9" y="296.5754098360655" text-anchor="start" transform="translate(0,-5)"><tspan alignment-baseline="middle" x="9" style="font-family: Arial, sans-serif; font-size: 12px; fill: black; font-weight: bold;">Daily Life &amp; Urban Space</tspan><tspan alignment-baseline="middle" x="9" dy="12" style="font-family: Arial, sans-serif; font-size: 12px; fill: black; font-weight: normal;">147</tspan></text><text x="9" y="348.30819672131145" text-anchor="start" transform="translate(0,-5)"><tspan alignment-baseline="middle" x="9" style="font-family: Arial, sans-serif; font-size: 12px; fill: black; font-weight: bold;">Children &amp; Family</tspan><tspan alignment-baseline="middle" x="9" dy="12" style="font-family: Arial, sans-serif; font-size: 12px; fill: black; font-weight: normal;">144</tspan></text><text x="9" y="394.8655737704918" text-anchor="start" transform="translate(0,-5)"><tspan alignment-baseline="middle" x="9" style="font-family: Arial, sans-serif; font-size: 12px; fill: black; font-weight: bold;">Law, Politics &amp; Exclusion</tspan><tspan alignment-baseline="middle" x="9" dy="12" style="font-family: Arial, sans-serif; font-size: 12px; fill: black; font-weight: normal;">106</tspan></text><text x="751" y="364.9704918032787" text-anchor="end" transform="translate(0,-5)"><tspan alignment-baseline="middle" x="751" style="font-family: Arial, sans-serif; font-size: 12px; fill: black; font-weight: bold;">Diplomacy</tspan><tspan alignment-baseline="middle" x="751" dy="12" style="font-family: Arial, sans-serif; font-size: 12px; fill: black; font-weight: normal;">76</tspan></text><text x="751" y="398.65245901639344" text-anchor="end" transform="translate(0,-5)"><tspan alignment-baseline="middle" x="751" style="font-family: Arial, sans-serif; font-size: 12px; fill: black; font-weight: bold;">Commerce &amp; Material Culture</tspan><tspan alignment-baseline="middle" x="751" dy="12" style="font-family: Arial, sans-serif; font-size: 12px; fill: black; font-weight: normal;">72</tspan></text><text x="9" y="432.2081967213114" text-anchor="start" transform="translate(0,-5)"><tspan alignment-baseline="middle" x="9" style="font-family: Arial, sans-serif; font-size: 12px; fill: black; font-weight: bold;">Commerce &amp; Material Culture</tspan><tspan alignment-baseline="middle" x="9" dy="12" style="font-family: Arial, sans-serif; font-size: 12px; fill: black; font-weight: normal;">71</tspan></text><text x="751" y="431.072131147541" text-anchor="end" transform="translate(0,-5)"><tspan alignment-baseline="middle" x="751" style="font-family: Arial, sans-serif; font-size: 12px; fill: black; font-weight: bold;">Land, Migration &amp; Labor</tspan><tspan alignment-baseline="middle" x="751" dy="12" style="font-family: Arial, sans-serif; font-size: 12px; fill: black; font-weight: normal;">66</tspan></text><text x="751" y="462.2295081967213" text-anchor="end" transform="translate(0,-5)"><tspan alignment-baseline="middle" x="751" style="font-family: Arial, sans-serif; font-size: 12px; fill: black; font-weight: bold;">Culture, Perception &amp; Acculturation</tspan><tspan alignment-baseline="middle" x="751" dy="12" style="font-family: Arial, sans-serif; font-size: 12px; fill: black; font-weight: normal;">62</tspan></text><text x="9" y="463.87049180327864" text-anchor="start" transform="translate(0,-5)"><tspan alignment-baseline="middle" x="9" style="font-family: Arial, sans-serif; font-size: 12px; fill: black; font-weight: bold;">Violence &amp; War</tspan><tspan alignment-baseline="middle" x="9" dy="12" style="font-family: Arial, sans-serif; font-size: 12px; fill: black; font-weight: normal;">61</tspan></text><text x="9" y="491.99836065573766" text-anchor="start" transform="translate(0,-5)"><tspan alignment-baseline="middle" x="9" style="font-family: Arial, sans-serif; font-size: 12px; fill: black; font-weight: bold;">Land, Migration &amp; Labor</tspan><tspan alignment-baseline="middle" x="9" dy="12" style="font-family: Arial, sans-serif; font-size: 12px; fill: black; font-weight: normal;">43</tspan></text><text x="751" y="490.2311475409836" text-anchor="end" transform="translate(0,-5)"><tspan alignment-baseline="middle" x="751" style="font-family: Arial, sans-serif; font-size: 12px; fill: black; font-weight: bold;">Daily Life &amp; Urban Space</tspan><tspan alignment-baseline="middle" x="751" dy="12" style="font-family: Arial, sans-serif; font-size: 12px; fill: black; font-weight: normal;">41</tspan></text><text x="751" y="515.2032786885246" text-anchor="end" transform="translate(0,-5)"><tspan alignment-baseline="middle" x="751" style="font-family: Arial, sans-serif; font-size: 12px; fill: black; font-weight: bold;">Violence &amp; War</tspan><tspan alignment-baseline="middle" x="751" dy="12" style="font-family: Arial, sans-serif; font-size: 12px; fill: black; font-weight: normal;">38</tspan></text><text x="9" y="516.2131147540983" text-anchor="start" transform="translate(0,-5)"><tspan alignment-baseline="middle" x="9" style="font-family: Arial, sans-serif; font-size: 12px; fill: black; font-weight: bold;">Culture, Perception &amp; Acculturation</tspan><tspan alignment-baseline="middle" x="9" dy="12" style="font-family: Arial, sans-serif; font-size: 12px; fill: black; font-weight: normal;">30</tspan></text></g><g><text x="757.5" y="-4" text-anchor="middle" style="font-family: Arial, sans-serif; font-size: 14px; fill: black; font-weight: bold;">All Category</text><text x="2.5" y="-4.000000000000057" text-anchor="middle" style="font-family: Arial, sans-serif; font-size: 14px; fill: black; font-weight: bold;">Deduped Category</text></g></g><text x="500" y="48" text-anchor="middle" style="font-family: Arial, sans-serif; font-size: 16px; font-weight: bold; fill: black;">Discourse Flow: Deduped Corpus → All Corpus (with reprint inflows)</text><text x="10" y="690" style="font-family: Arial, sans-serif; font-size: 9px; fill: #888888;">Source: Chronicling America, Library of Congress. Deduped: 1,100 articles. All: 1,525 articles. NOISE topics excluded.</text></svg>